# Blender 5.2.1 LTS
# www.blender.org
o Plane
v -2.000000 4.500000 -2.000000
v 2.000000 4.500000 -2.000000
v -2.000000 4.500000 2.000000
v 2.000000 4.500000 2.000000
v 0.000000 1.500000 -0.000001
vn -0.0000 1.0000 -0.0000
vn -0.0000 -0.5547 0.8321
vn -0.0000 -0.5547 -0.8321
vn 0.8321 -0.5547 -0.0000
vn -0.8321 -0.5547 -0.0000
vt 0.000000 0.000000
vt 0.000000 1.000000
vt 1.000000 1.000000
vt 1.000000 0.000000
s 0
f 1/1/1 3/2/1 4/3/1 2/4/1
f 4/3/2 3/2/2 5/3/2
f 1/1/3 2/4/3 5/1/3
f 2/4/4 4/3/4 5/4/4
f 3/2/5 1/1/5 5/2/5
